<?xml version="1.0" standalone="no"?>
<!DOCTYPE svg PUBLIC "-//W3C//DTD SVG 20010904//EN"
 "http://www.w3.org/TR/2001/REC-SVG-20010904/DTD/svg10.dtd">
<svg version="1.0" xmlns="http://www.w3.org/2000/svg"
 width="613.000000pt" height="242.000000pt" viewBox="0 0 613.000000 242.000000"
 preserveAspectRatio="xMidYMid meet">
<metadata>
Created by potrace 1.16, written by Peter Selinger 2001-2019
</metadata>
<g transform="translate(0.000000,242.000000) scale(0.100000,-0.100000)"
fill="#000000" stroke="none">
<path d="M0 1210 l0 -1210 3065 0 3065 0 0 1210 0 1210 -3065 0 -3065 0 0
-1210z m3128 940 c67 -41 85 -106 52 -186 -11 -26 -11 -33 3 -50 9 -10 73 -95
143 -189 69 -93 134 -177 144 -187 62 -59 184 -77 260 -38 22 11 82 63 135
115 l96 95 -20 29 c-23 31 -28 92 -11 135 5 14 27 37 50 52 72 48 161 19 196
-62 21 -49 7 -99 -40 -147 l-41 -42 -69 -282 c-46 -189 -75 -289 -88 -303 -19
-20 -29 -20 -877 -20 -740 0 -860 2 -871 15 -6 8 -44 144 -83 303 l-72 288
-42 41 c-40 37 -43 44 -43 92 0 88 48 141 127 141 98 0 165 -109 118 -190 -8
-14 -17 -31 -21 -39 -9 -18 172 -192 230 -223 32 -16 53 -19 111 -16 95 4 131
30 226 160 41 55 79 106 84 112 30 33 135 177 135 185 0 5 -7 22 -15 37 -59
114 74 240 183 174z m776 -1221 c25 -12 42 -47 40 -84 -1 -11 -2 -50 -3 -87
-1 -46 -6 -72 -17 -82 -14 -14 -105 -16 -859 -16 l-844 0 -15 22 c-12 16 -16
47 -16 111 0 95 9 123 43 137 34 14 1641 12 1671 -1z m-1577 -391 c6 -7 14
-31 18 -53 l8 -40 11 50 c10 46 13 50 44 53 22 2 34 -2 38 -12 3 -9 -8 -73
-25 -144 -17 -70 -31 -153 -31 -184 0 -52 -2 -56 -26 -62 -42 -11 -54 8 -54
83 0 38 -13 117 -29 186 -16 66 -27 123 -25 127 8 13 61 9 71 -4z m287 2 c44
-16 56 -56 56 -188 0 -136 -10 -176 -51 -197 -44 -23 -83 -19 -118 14 l-31 29
0 144 c0 116 3 148 16 166 27 39 78 51 128 32z m364 -27 c22 -27 23 -33 20
-188 -1 -88 0 -165 4 -171 4 -6 1 -19 -6 -30 -13 -17 -16 -17 -47 -2 -19 10
-51 20 -71 23 -23 4 -45 15 -58 32 -18 23 -20 40 -20 167 0 151 7 177 54 197
38 16 99 3 124 -28z m132 -127 c4 -115 8 -161 18 -164 9 -3 12 29 12 137 0
151 8 191 39 191 50 0 51 -3 51 -159 0 -80 -5 -163 -11 -183 -22 -82 -151 -93
-179 -15 -11 33 -14 340 -3 351 4 4 21 6 38 4 l30 -3 5 -159z m218 -38 l2
-198 -25 -6 c-54 -14 -55 -11 -55 199 0 107 3 197 7 201 4 4 21 6 38 4 l30 -3
3 -197z m190 160 c3 -36 1 -38 -25 -38 -44 0 -60 -21 -48 -61 5 -14 16 -19 41
-19 35 0 35 -1 32 -37 -3 -35 -6 -38 -37 -43 -24 -4 -35 -11 -37 -25 -6 -36 6
-55 35 -55 35 0 51 -17 51 -52 0 -34 -20 -40 -105 -36 l-60 3 -5 185 c-3 102
-1 193 3 203 7 15 19 17 80 15 l72 -3 3 -37z m172 36 c24 -5 36 -15 46 -40 18
-43 18 -104 0 -130 -10 -13 -11 -25 -5 -35 5 -8 9 -53 9 -100 0 -86 0 -87 -27
-92 -48 -9 -53 -1 -53 89 0 49 -4 84 -10 84 -10 0 -12 -23 -12 -112 0 -54 -14
-71 -55 -66 l-28 3 -3 190 c-1 104 0 195 2 202 6 14 81 18 136 7z m223 -6 c12
-6 27 -18 34 -27 16 -21 18 -290 2 -324 -29 -63 -138 -62 -170 2 -20 39 -22
269 -2 308 23 48 87 68 136 41z"/>
</g>
</svg>
